<svg width="30" height="30" viewBox="0 0 30 30" fill="none" xmlns="http://www.w3.org/2000/svg">
<circle cx="15" cy="15" r="15" fill="#3F0095"/>
<mask id="path-2-inside-1" fill="white">
<path fill-rule="evenodd" clip-rule="evenodd" d="M24.528 7L3 16.2065L14.96 16.2065L14.96 27.2542L24.528 7Z"/>
</mask>
<path fill-rule="evenodd" clip-rule="evenodd" d="M24.528 7L3 16.2065L14.96 16.2065L14.96 27.2542L24.528 7Z" fill="white"/>
<path d="M3 16.2065L2.6068 15.287L3 17.2065L3 16.2065ZM24.528 7L25.4322 7.42713L26.5578 5.04435L24.1348 6.08055L24.528 7ZM14.96 16.2065L15.96 16.2065L15.96 15.2065L14.96 15.2065L14.96 16.2065ZM14.96 27.2542L13.96 27.2542L15.8642 27.6813L14.96 27.2542ZM3.3932 17.1259L24.9212 7.91945L24.1348 6.08055L2.6068 15.287L3.3932 17.1259ZM3 17.2065L14.96 17.2065L14.96 15.2065L3 15.2065L3 17.2065ZM13.96 16.2065L13.96 27.2542L15.96 27.2542L15.96 16.2065L13.96 16.2065ZM23.6238 6.57287L14.0558 26.8271L15.8642 27.6813L25.4322 7.42713L23.6238 6.57287Z" fill="#3F0095" mask="url(#path-2-inside-1)"/>
</svg>
